<svg xmlns="http://www.w3.org/2000/svg" xmlns:xlink="http://www.w3.org/1999/xlink" width="800" height="521.04"><rect width="800" height="521.04" rx="0" ry="0" class="a"/><svg height="521.04" viewBox="0 0 80 52.104" width="800" xmlns="http://www.w3.org/2000/svg" xmlns:xlink="http://www.w3.org/1999/xlink"><style>@keyframes j{0%{transform:translateX(0)}.1%{transform:translateX(-80px)}.2%{transform:translateX(-160px)}2.5%{transform:translateX(-240px)}3.6%{transform:translateX(-320px)}4.8%{transform:translateX(-400px)}6%{transform:translateX(-480px)}7.1%{transform:translateX(-560px)}8.3%{transform:translateX(-640px)}9.4%{transform:translateX(-720px)}10.5%{transform:translateX(-800px)}11.6%{transform:translateX(-880px)}12.8%{transform:translateX(-960px)}13.9%{transform:translateX(-1040px)}15.1%{transform:translateX(-1120px)}16.2%{transform:translateX(-1200px)}36.6%{transform:translateX(-1280px)}36.8%{transform:translateX(-1360px)}37%{transform:translateX(-1440px)}37.3%{transform:translateX(-4000px)}37.5%{transform:translateX(-4080px)}to{transform:translateX(-4160px)}}.a{fill:#282d35}.c{fill:#b9c0cb}.d,.e,.g{fill:#a8cc8c}.e,.g{font-weight:700}.g{fill:#71bef2}</style><g font-size="1.67" font-family="Monaco,Consolas,Menlo,'Bitstream Vera Sans Mono','Powerline Symbols',monospace"><defs><symbol id="1"><text y="1.67" class="c">/Users/michael/Source/changes</text></symbol><symbol id="2"><text y="1.67" class="d">位</text><text x="2.004" y="1.67" class="c">changes</text></symbol><symbol id="3"><text y="1.67" class="d">位</text><text x="2.004" y="1.67" class="c">changes</text><text x="10.02" y="1.67" class="c">status</text></symbol><symbol id="4"><text y="1.67" class="e">Status</text><text x="7.014" y="1.67" class="e">[michaeljoseph/changes]...</text></symbol><symbol id="5"><text y="1.67" class="e">Repository:</text><text x="12.024" y="1.67" fill="#66c2cd" font-weight="700">michaeljoseph/changes</text><text x="33.066" y="1.67" class="c">...</text></symbol><symbol id="6"><text y="1.67" class="e">Latest</text><text x="7.014" y="1.67" class="e">Version...</text></symbol><symbol id="7"><text y="1.67" class="g">0.7.0</text></symbol><symbol id="8"><text y="1.67" class="e">Changes...</text></symbol><symbol id="9"><text y="1.67" class="g">38</text><text x="3.006" y="1.67" class="g">changes</text><text x="11.022" y="1.67" class="g">found</text><text x="17.034" y="1.67" class="g">since</text><text x="23.046" y="1.67" class="g">0.7.0</text></symbol><symbol id="10"><text y="1.67" class="g">#164</text><text x="5.01" y="1.67" class="g">Update</text><text x="12.024" y="1.67" class="g">pytest</text><text x="19.038" y="1.67" class="g">to</text><text x="22.044" y="1.67" class="g">3.4.1</text><text x="28.056" y="1.67" class="g">by</text><text x="31.062" y="1.67" class="g">@pyup-bot</text></symbol><symbol id="11"><text y="1.67" class="g">#163</text><text x="5.01" y="1.67" class="g">Update</text><text x="12.024" y="1.67" class="g">pytest-mock</text><text x="24.048" y="1.67" class="g">to</text><text x="27.054" y="1.67" class="g">1.7.0</text><text x="33.066" y="1.67" class="g">by</text><text x="36.072" y="1.67" class="g">@pyup-bot</text></symbol><symbol id="12"><text y="1.67" class="g">#161</text><text x="5.01" y="1.67" class="g">Update</text><text x="12.024" y="1.67" class="g">plumbum</text><text x="20.04" y="1.67" class="g">to</text><text x="23.046" y="1.67" class="g">1.6.6</text><text x="29.058" y="1.67" class="g">by</text><text x="32.064" y="1.67" class="g">@pyup-bot</text></symbol><symbol id="13"><text y="1.67" class="g">#160</text><text x="5.01" y="1.67" class="g">Update</text><text x="12.024" y="1.67" class="g">sphinx-bootstrap-theme</text><text x="35.07" y="1.67" class="g">to</text><text x="38.076" y="1.67" class="g">0.6.4</text><text x="44.088" y="1.67" class="g">by</text><text x="47.094" y="1.67" class="g">@pyup-bot</text></symbol><symbol id="14"><text y="1.67" class="g">#162</text><text x="5.01" y="1.67" class="g">Update</text><text x="12.024" y="1.67" class="g">codecov</text><text x="20.04" y="1.67" class="g">to</text><text x="23.046" y="1.67" class="g">2.0.15</text><text x="30.06" y="1.67" class="g">by</text><text x="33.066" y="1.67" class="g">@pyup-bot</text></symbol><symbol id="15"><text y="1.67" class="g">#154</text><text x="5.01" y="1.67" class="g">Update</text><text x="12.024" y="1.67" class="g">autopep8</text><text x="21.042" y="1.67" class="g">to</text><text x="24.048" y="1.67" class="g">1.3.4</text><text x="30.06" y="1.67" class="g">by</text><text x="33.066" y="1.67" class="g">@pyup-bot</text></symbol><symbol id="16"><text y="1.67" class="g">#157</text><text x="5.01" y="1.67" class="g">Update</text><text x="12.024" y="1.67" class="g">pytest</text><text x="19.038" y="1.67" class="g">to</text><text x="22.044" y="1.67" class="g">3.4.0</text><text x="28.056" y="1.67" class="g">by</text><text x="31.062" y="1.67" class="g">@pyup-bot</text></symbol><symbol id="17"><text y="1.67" class="g">#155</text><text x="5.01" y="1.67" class="g">Update</text><text x="12.024" y="1.67" class="g">invoke</text><text x="19.038" y="1.67" class="g">to</text><text x="22.044" y="1.67" class="g">0.22.1</text><text x="29.058" y="1.67" class="g">by</text><text x="32.064" y="1.67" class="g">@pyup-bot</text></symbol><symbol id="18"><text y="1.67" class="g">#149</text><text x="5.01" y="1.67" class="g">Update</text><text x="12.024" y="1.67" class="g">sphinxcontrib-httpdomain</text><text x="37.074" y="1.67" class="g">to</text><text x="40.08" y="1.67" class="g">1.6.0</text><text x="46.092" y="1.67" class="g">by</text><text x="49.098" y="1.67" class="g">@pyup-bot</text></symbol><symbol id="19"><text y="1.67" class="g">#159</text><text x="5.01" y="1.67" class="g">Refactor</text><text x="14.028" y="1.67" class="g">git</text><text x="18.036" y="1.67" class="g">usage</text><text x="24.048" y="1.67" class="g">by</text><text x="27.054" y="1.67" class="g">@michaeljoseph</text><text x="42.084" y="1.67" class="g">[hygiene]</text></symbol><symbol id="20"><text y="1.67" class="g">#146</text><text x="5.01" y="1.67" class="g">Update</text><text x="12.024" y="1.67" class="g">toml</text><text x="17.034" y="1.67" class="g">to</text><text x="20.04" y="1.67" class="g">0.9.4</text><text x="26.052" y="1.67" class="g">by</text><text x="29.058" y="1.67" class="g">@pyup-bot</text></symbol><symbol id="21"><text y="1.67" class="g">#145</text><text x="5.01" y="1.67" class="g">Update</text><text x="12.024" y="1.67" class="g">codecov</text><text x="20.04" y="1.67" class="g">to</text><text x="23.046" y="1.67" class="g">2.0.13</text><text x="30.06" y="1.67" class="g">by</text><text x="33.066" y="1.67" class="g">@pyup-bot</text></symbol><symbol id="22"><text y="1.67" class="g">#141</text><text x="5.01" y="1.67" class="g">Update</text><text x="12.024" y="1.67" class="g">attrs</text><text x="18.036" y="1.67" class="g">to</text><text x="21.042" y="1.67" class="g">17.4.0</text><text x="28.056" y="1.67" class="g">by</text><text x="31.062" y="1.67" class="g">@pyup-bot</text></symbol><symbol id="23"><text y="1.67" class="g">#140</text><text x="5.01" y="1.67" class="g">Update</text><text x="12.024" y="1.67" class="g">plumbum</text><text x="20.04" y="1.67" class="g">to</text><text x="23.046" y="1.67" class="g">1.6.5</text><text x="29.058" y="1.67" class="g">by</text><text x="32.064" y="1.67" class="g">@pyup-bot</text></symbol><symbol id="24"><text y="1.67" class="g">#135</text><text x="5.01" y="1.67" class="g">Update</text><text x="12.024" y="1.67" class="g">invoke</text><text x="19.038" y="1.67" class="g">to</text><text x="22.044" y="1.67" class="g">0.22.0</text><text x="29.058" y="1.67" class="g">by</text><text x="32.064" y="1.67" class="g">@pyup-bot</text></symbol><symbol id="25"><text y="1.67" class="g">#137</text><text x="5.01" y="1.67" class="g">Update</text><text x="12.024" y="1.67" class="g">codecov</text><text x="20.04" y="1.67" class="g">to</text><text x="23.046" y="1.67" class="g">2.0.10</text><text x="30.06" y="1.67" class="g">by</text><text x="33.066" y="1.67" class="g">@pyup-bot</text></symbol><symbol id="26"><text y="1.67" class="g">#133</text><text x="5.01" y="1.67" class="g">Update</text><text x="12.024" y="1.67" class="g">plumbum</text><text x="20.04" y="1.67" class="g">to</text><text x="23.046" y="1.67" class="g">1.6.4</text><text x="29.058" y="1.67" class="g">by</text><text x="32.064" y="1.67" class="g">@pyup-bot</text></symbol><symbol id="27"><text y="1.67" class="g">#131</text><text x="5.01" y="1.67" class="g">Linting</text><text x="13.026" y="1.67" class="g">by</text><text x="16.032" y="1.67" class="g">@michaeljoseph</text><text x="31.062" y="1.67" class="g">[hygiene]</text></symbol><symbol id="28"><text y="1.67" class="g">#130</text><text x="5.01" y="1.67" class="g">Update</text><text x="12.024" y="1.67" class="g">pytest</text><text x="19.038" y="1.67" class="g">to</text><text x="22.044" y="1.67" class="g">3.2.5</text><text x="28.056" y="1.67" class="g">by</text><text x="31.062" y="1.67" class="g">@pyup-bot</text></symbol><symbol id="29"><text y="1.67" class="g">#127</text><text x="5.01" y="1.67" class="g">Refactor</text><text x="14.028" y="1.67" class="g">and</text><text x="18.036" y="1.67" class="g">polish</text><text x="25.05" y="1.67" class="g">by</text><text x="28.056" y="1.67" class="g">@michaeljoseph</text><text x="43.086" y="1.67" class="g">[hygiene]</text></symbol><symbol id="30"><text y="1.67" class="g">#128</text><text x="5.01" y="1.67" class="g">Update</text><text x="12.024" y="1.67" class="g">attrs</text><text x="18.036" y="1.67" class="g">to</text><text x="21.042" y="1.67" class="g">17.3.0</text><text x="28.056" y="1.67" class="g">by</text><text x="31.062" y="1.67" class="g">@pyup-bot</text></symbol><symbol id="31"><text y="1.67" class="g">#126</text><text x="5.01" y="1.67" class="g">publish:</text><text x="14.028" y="1.67" class="g">commit,</text><text x="22.044" y="1.67" class="g">tag</text><text x="26.052" y="1.67" class="g">and</text><text x="30.06" y="1.67" class="g">publish</text><text x="38.076" y="1.67" class="g">release</text><text x="46.092" y="1.67" class="g">by</text><text x="49.098" y="1.67" class="g">@michaeljoseph</text><text x="64.128" y="1.67" class="g">[enhancement]</text></symbol><symbol id="32"><text y="1.67" class="g">#125</text><text x="5.01" y="1.67" class="g">stage:</text><text x="12.024" y="1.67" class="g">discard</text><text x="20.04" y="1.67" class="g">release</text><text x="28.056" y="1.67" class="g">modifications</text><text x="42.084" y="1.67" class="g">by</text><text x="45.09" y="1.67" class="g">@michaeljoseph</text><text x="60.12" y="1.67" class="g">[enhancement]</text></symbol><symbol id="33"><text y="1.67" class="g">#122</text><text x="5.01" y="1.67" class="g">stage:</text><text x="12.024" y="1.67" class="g">draft</text><text x="18.036" y="1.67" class="g">release</text><text x="26.052" y="1.67" class="g">notes</text><text x="32.064" y="1.67" class="g">by</text><text x="35.07" y="1.67" class="g">@michaeljoseph</text><text x="50.1" y="1.67" class="g">[enhancement]</text></symbol><symbol id="34"><text y="1.67" class="g">#121</text><text x="5.01" y="1.67" class="g">Initial</text><text x="13.026" y="1.67" class="g">Update</text><text x="20.04" y="1.67" class="g">by</text><text x="23.046" y="1.67" class="g">@pyup-bot</text><text x="33.066" y="1.67" class="g">[hygiene]</text></symbol><symbol id="35"><text y="1.67" class="g">#120</text><text x="5.01" y="1.67" class="g">Stage</text><text x="11.022" y="1.67" class="g">release</text><text x="19.038" y="1.67" class="g">documentation</text><text x="33.066" y="1.67" class="g">and</text><text x="37.074" y="1.67" class="g">version</text><text x="45.09" y="1.67" class="g">increment</text><text x="55.11" y="1.67" class="g">by</text><text x="58.116" y="1.67" class="g">@michaeljoseph</text><text x="73.146" y="1.67" class="g">[enhanc</text></symbol><symbol id="36"><text y="1.67" class="g">ement]</text></symbol><symbol id="37"><text y="1.67" class="g">#119</text><text x="5.01" y="1.67" class="g">Updates</text><text x="13.026" y="1.67" class="g">appveyor</text><text x="22.044" y="1.67" class="g">test</text><text x="27.054" y="1.67" class="g">command</text><text x="35.07" y="1.67" class="g">and</text><text x="39.078" y="1.67" class="g">prune</text><text x="45.09" y="1.67" class="g">versions</text><text x="54.108" y="1.67" class="g">by</text><text x="57.114" y="1.67" class="g">@michaeljoseph</text><text x="72.144" y="1.67" class="g">[hygiene</text></symbol><symbol id="38"><text y="1.67" class="g">]</text></symbol><symbol id="39"><text y="1.67" class="g">#118</text><text x="5.01" y="1.67" class="g">Status</text><text x="12.024" y="1.67" class="g">command</text><text x="20.04" y="1.67" class="g">by</text><text x="23.046" y="1.67" class="g">@michaeljoseph</text><text x="38.076" y="1.67" class="g">[enhancement]</text></symbol><symbol id="40"><text y="1.67" class="g">#117</text><text x="5.01" y="1.67" class="g">Init</text><text x="12.024" y="1.67" class="g">command</text><text x="20.04" y="1.67" class="g">by</text><text x="23.046" y="1.67" class="g">@michaeljoseph</text><text x="38.076" y="1.67" class="g">[breaking-change,enhancement]</text></symbol><symbol id="41"><text y="1.67" class="g">#116</text><text x="5.01" y="1.67" class="g">Fix</text><text x="9.018" y="1.67" class="g">typo</text><text x="14.028" y="1.67" class="g">in</text><text x="17.034" y="1.67" class="g">CLI</text><text x="21.042" y="1.67" class="g">option</text><text x="28.056" y="1.67" class="g">descriptions</text><text x="41.082" y="1.67" class="g">by</text><text x="44.088" y="1.67" class="g">@getconor</text><text x="54.108" y="1.67" class="g">[docs]</text></symbol><symbol id="42"><text y="1.67" class="g">#111</text><text x="5.01" y="1.67" class="g">Windows</text><text x="13.026" y="1.67" class="g">support</text><text x="21.042" y="1.67" class="g">with</text><text x="26.052" y="1.67" class="g">Appveyor</text><text x="35.07" y="1.67" class="g">CI</text><text x="38.076" y="1.67" class="g">by</text><text x="41.082" y="1.67" class="g">@michaeljoseph</text><text x="56.112" y="1.67" class="g">[enhancement]</text></symbol><symbol id="43"><text y="1.67" class="g">#114</text><text x="5.01" y="1.67" class="g">Update</text><text x="12.024" y="1.67" class="g">requirements</text><text x="25.05" y="1.67" class="g">by</text><text x="28.056" y="1.67" class="g">@michaeljoseph</text><text x="43.086" y="1.67" class="g">[hygiene]</text></symbol><symbol id="44"><text y="1.67" class="g">#112</text><text x="5.01" y="1.67" class="g">Fix</text><text x="9.018" y="1.67" class="g">broken</text><text x="16.032" y="1.67" class="g">link</text><text x="21.042" y="1.67" class="g">by</text><text x="24.048" y="1.67" class="g">@michaelaye</text><text x="36.072" y="1.67" class="g">[docs]</text></symbol><symbol id="45"><text y="1.67" class="g">#110</text><text x="5.01" y="1.67" class="g">Sign</text><text x="10.02" y="1.67" class="g">git</text><text x="14.028" y="1.67" class="g">tags</text><text x="19.038" y="1.67" class="g">by</text><text x="22.044" y="1.67" class="g">@michaeljoseph</text><text x="37.074" y="1.67" class="g">[enhancement]</text></symbol><symbol id="46"><text y="1.67" class="g">#108</text><text x="5.01" y="1.67" class="g">Fix</text><text x="9.018" y="1.67" class="g">typographical</text><text x="23.046" y="1.67" class="g">error(s)</text><text x="32.064" y="1.67" class="g">by</text><text x="35.07" y="1.67" class="g">@orthographic-pedant</text><text x="56.112" y="1.67" class="g">[docs]</text></symbol><symbol id="47"><text y="1.67" class="g">#107</text><text x="5.01" y="1.67" class="g">Readme</text><text x="12.024" y="1.67" class="g">updates</text><text x="20.04" y="1.67" class="g">by</text><text x="23.046" y="1.67" class="g">@michaeljoseph</text><text x="38.076" y="1.67" class="g">[docs]</text></symbol><symbol id="48"><text y="1.67" class="g">#105</text><text x="5.01" y="1.67" class="g">CircleCI</text><text x="14.028" y="1.67" class="g">by</text><text x="17.034" y="1.67" class="g">@michaeljoseph</text><text x="32.064" y="1.67" class="g">[enhancement]</text></symbol><symbol id="49"><text y="1.67" class="g">#106</text><text x="5.01" y="1.67" class="g">Support</text><text x="13.026" y="1.67" class="g">for</text><text x="17.034" y="1.67" class="g">other</text><text x="23.046" y="1.67" class="g">markup</text><text x="30.06" y="1.67" class="g">extensions</text><text x="41.082" y="1.67" class="g">for</text><text x="45.09" y="1.67" class="g">README</text><text x="52.104" y="1.67" class="g">files</text><text x="58.116" y="1.67" class="g">by</text><text x="61.122" y="1.67" class="g">@goldsborough</text><text x="75.15" y="1.67" class="g">[enha</text></symbol><symbol id="50"><text y="1.67" class="g">ncement]</text></symbol><symbol id="51"><text y="1.67" class="e">Computed</text><text x="9.018" y="1.67" class="e">release</text><text x="17.034" y="1.67" class="e">type</text><text x="22.044" y="1.67" class="e">feature</text><text x="30.06" y="1.67" class="e">from</text><text x="35.07" y="1.67" class="e">changes</text><text x="43.086" y="1.67" class="e">issue</text><text x="49.098" y="1.67" class="e">tags...</text></symbol><symbol id="52"><text y="1.67" class="e">Proposed</text><text x="9.018" y="1.67" class="e">version</text><text x="17.034" y="1.67" class="e">bump</text><text x="22.044" y="1.67" class="e">0.7.0</text><text x="28.056" y="1.67" class="e">=&gt;</text><text x="31.062" y="1.67" class="e">0.8.0...</text></symbol><symbol id="a"><path fill="transparent" d="M0 0h80v24H0z"/></symbol><symbol id="b"><path fill="#6f7683" d="M0 0h1.102v2.171H0z"/></symbol></defs><path class="a" d="M0 0h80v52.104H0z"/><g style="animation-duration:8.108538s;animation-iteration-count:infinite;animation-name:j;animation-timing-function:steps(1,end)"><svg width="4240"><svg><use xlink:href="#a"/><use xlink:href="#b" x="-.004"/></svg><svg x="80"><use xlink:href="#a"/><use xlink:href="#b" x="1.996" y="2.146"/><use xlink:href="#1"/><text y="3.841" class="d">位</text></svg><svg x="160"><use xlink:href="#a"/><use xlink:href="#b" x="2.996" y="2.146"/><use xlink:href="#1"/><text y="3.841" class="d">位</text><text x="2.004" y="3.841" class="c">c</text></svg><svg x="240"><use xlink:href="#a"/><use xlink:href="#b" x="3.996" y="2.146"/><use xlink:href="#1"/><text y="3.841" class="d">位</text><text x="2.004" y="3.841" class="c">ch</text></svg><svg x="320"><use xlink:href="#a"/><use xlink:href="#b" x="4.996" y="2.146"/><use xlink:href="#1"/><text y="3.841" class="d">位</text><text x="2.004" y="3.841" class="c">cha</text></svg><svg x="400"><use xlink:href="#a"/><use xlink:href="#b" x="5.996" y="2.146"/><use xlink:href="#1"/><text y="3.841" class="d">位</text><text x="2.004" y="3.841" class="c">chan</text></svg><svg x="480"><use xlink:href="#a"/><use xlink:href="#b" x="6.996" y="2.146"/><use xlink:href="#1"/><text y="3.841" class="d">位</text><text x="2.004" y="3.841" class="c">chang</text></svg><svg x="560"><use xlink:href="#a"/><use xlink:href="#b" x="7.996" y="2.146"/><use xlink:href="#1"/><text y="3.841" class="d">位</text><text x="2.004" y="3.841" class="c">change</text></svg><svg x="640"><use xlink:href="#a"/><use xlink:href="#b" x="8.996" y="2.146"/><use xlink:href="#1"/><use xlink:href="#2" y="2.171"/></svg><svg x="720"><use xlink:href="#a"/><use xlink:href="#b" x="9.996" y="2.146"/><use xlink:href="#1"/><use xlink:href="#2" y="2.171"/></svg><svg x="800"><use xlink:href="#a"/><use xlink:href="#b" x="10.996" y="2.146"/><use xlink:href="#1"/><text y="3.841" class="d">位</text><text x="2.004" y="3.841" class="c">changes</text><text x="10.02" y="3.841" class="c">s</text></svg><svg x="880"><use xlink:href="#a"/><use xlink:href="#b" x="12.996" y="2.146"/><use xlink:href="#1"/><text y="3.841" class="d">位</text><text x="2.004" y="3.841" class="c">changes</text><text x="10.02" y="3.841" class="c">sta</text></svg><svg x="960"><use xlink:href="#a"/><use xlink:href="#b" x="13.996" y="2.146"/><use xlink:href="#1"/><text y="3.841" class="d">位</text><text x="2.004" y="3.841" class="c">changes</text><text x="10.02" y="3.841" class="c">stat</text></svg><svg x="1040"><use xlink:href="#a"/><use xlink:href="#b" x="14.996" y="2.146"/><use xlink:href="#1"/><text y="3.841" class="d">位</text><text x="2.004" y="3.841" class="c">changes</text><text x="10.02" y="3.841" class="c">statu</text></svg><svg x="1120"><use xlink:href="#a"/><use xlink:href="#b" x="15.996" y="2.146"/><use xlink:href="#1"/><use xlink:href="#3" y="2.171"/></svg><svg x="1200"><use xlink:href="#a"/><use xlink:href="#b" x="-.004" y="4.317"/><use xlink:href="#1"/><use xlink:href="#3" y="2.171"/></svg><svg x="1280"><use xlink:href="#a"/><use xlink:href="#b" x="-.004" y="6.488"/><use xlink:href="#1"/><use xlink:href="#3" y="2.171"/><use xlink:href="#4" y="4.342"/></svg><svg x="1360"><use xlink:href="#a"/><use xlink:href="#b" x="-.004" y="10.83"/><use xlink:href="#1"/><use xlink:href="#3" y="2.171"/><use xlink:href="#4" y="4.342"/><use xlink:href="#5" y="6.513"/><use xlink:href="#6" y="8.684"/></svg><svg x="1440"><use xlink:href="#a"/><use xlink:href="#b" x="-.004" y="15.172"/><use xlink:href="#1"/><use xlink:href="#3" y="2.171"/><use xlink:href="#4" y="4.342"/><use xlink:href="#5" y="6.513"/><use xlink:href="#6" y="8.684"/><use xlink:href="#7" y="10.855"/><use xlink:href="#8" y="13.026"/></svg><svg x="1520"><use xlink:href="#a"/><use xlink:href="#b" x="-.004" y="17.343"/><use xlink:href="#1"/><use xlink:href="#3" y="2.171"/><use xlink:href="#4" y="4.342"/><use xlink:href="#5" y="6.513"/><use xlink:href="#6" y="8.684"/><use xlink:href="#7" y="10.855"/><use xlink:href="#8" y="13.026"/><use xlink:href="#9" y="15.197"/></svg><svg x="1600"><use xlink:href="#a"/><use xlink:href="#b" x="-.004" y="21.685"/><use xlink:href="#1"/><use xlink:href="#3" y="2.171"/><use xlink:href="#4" y="4.342"/><use xlink:href="#5" y="6.513"/><use xlink:href="#6" y="8.684"/><use xlink:href="#7" y="10.855"/><use xlink:href="#8" y="13.026"/><use xlink:href="#9" y="15.197"/><use xlink:href="#10" y="17.368"/><use xlink:href="#11" y="19.539"/></svg><svg x="1680"><use xlink:href="#a"/><use xlink:href="#b" x="-.004" y="23.856"/><use xlink:href="#1"/><use xlink:href="#3" y="2.171"/><use xlink:href="#4" y="4.342"/><use xlink:href="#5" y="6.513"/><use xlink:href="#6" y="8.684"/><use xlink:href="#7" y="10.855"/><use xlink:href="#8" y="13.026"/><use xlink:href="#9" y="15.197"/><use xlink:href="#10" y="17.368"/><use xlink:href="#11" y="19.539"/><use xlink:href="#12" y="21.71"/></svg><svg x="1760"><use xlink:href="#a"/><use xlink:href="#b" x="-.004" y="26.027"/><use xlink:href="#1"/><use xlink:href="#3" y="2.171"/><use xlink:href="#4" y="4.342"/><use xlink:href="#5" y="6.513"/><use xlink:href="#6" y="8.684"/><use xlink:href="#7" y="10.855"/><use xlink:href="#8" y="13.026"/><use xlink:href="#9" y="15.197"/><use xlink:href="#10" y="17.368"/><use xlink:href="#11" y="19.539"/><use xlink:href="#12" y="21.71"/><use xlink:href="#13" y="23.881"/></svg><svg x="1840"><use xlink:href="#a"/><use xlink:href="#b" x="-.004" y="28.198"/><use xlink:href="#1"/><use xlink:href="#3" y="2.171"/><use xlink:href="#4" y="4.342"/><use xlink:href="#5" y="6.513"/><use xlink:href="#6" y="8.684"/><use xlink:href="#7" y="10.855"/><use xlink:href="#8" y="13.026"/><use xlink:href="#9" y="15.197"/><use xlink:href="#10" y="17.368"/><use xlink:href="#11" y="19.539"/><use xlink:href="#12" y="21.71"/><use xlink:href="#13" y="23.881"/><use xlink:href="#14" y="26.052"/></svg><svg x="1920"><use xlink:href="#a"/><use xlink:href="#b" x="-.004" y="30.369"/><use xlink:href="#1"/><use xlink:href="#3" y="2.171"/><use xlink:href="#4" y="4.342"/><use xlink:href="#5" y="6.513"/><use xlink:href="#6" y="8.684"/><use xlink:href="#7" y="10.855"/><use xlink:href="#8" y="13.026"/><use xlink:href="#9" y="15.197"/><use xlink:href="#10" y="17.368"/><use xlink:href="#11" y="19.539"/><use xlink:href="#12" y="21.71"/><use xlink:href="#13" y="23.881"/><use xlink:href="#14" y="26.052"/><use xlink:href="#15" y="28.223"/></svg><svg x="2000"><use xlink:href="#a"/><use xlink:href="#b" x="-.004" y="32.54"/><use xlink:href="#1"/><use xlink:href="#3" y="2.171"/><use xlink:href="#4" y="4.342"/><use xlink:href="#5" y="6.513"/><use xlink:href="#6" y="8.684"/><use xlink:href="#7" y="10.855"/><use xlink:href="#8" y="13.026"/><use xlink:href="#9" y="15.197"/><use xlink:href="#10" y="17.368"/><use xlink:href="#11" y="19.539"/><use xlink:href="#12" y="21.71"/><use xlink:href="#13" y="23.881"/><use xlink:href="#14" y="26.052"/><use xlink:href="#15" y="28.223"/><use xlink:href="#16" y="30.394"/></svg><svg x="2080"><use xlink:href="#a"/><use xlink:href="#b" x="-.004" y="34.711"/><use xlink:href="#1"/><use xlink:href="#3" y="2.171"/><use xlink:href="#4" y="4.342"/><use xlink:href="#5" y="6.513"/><use xlink:href="#6" y="8.684"/><use xlink:href="#7" y="10.855"/><use xlink:href="#8" y="13.026"/><use xlink:href="#9" y="15.197"/><use xlink:href="#10" y="17.368"/><use xlink:href="#11" y="19.539"/><use xlink:href="#12" y="21.71"/><use xlink:href="#13" y="23.881"/><use xlink:href="#14" y="26.052"/><use xlink:href="#15" y="28.223"/><use xlink:href="#16" y="30.394"/><use xlink:href="#17" y="32.565"/></svg><svg x="2160"><use xlink:href="#a"/><use xlink:href="#b" x="-.004" y="41.224"/><use xlink:href="#1"/><use xlink:href="#3" y="2.171"/><use xlink:href="#4" y="4.342"/><use xlink:href="#5" y="6.513"/><use xlink:href="#6" y="8.684"/><use xlink:href="#7" y="10.855"/><use xlink:href="#8" y="13.026"/><use xlink:href="#9" y="15.197"/><use xlink:href="#10" y="17.368"/><use xlink:href="#11" y="19.539"/><use xlink:href="#12" y="21.71"/><use xlink:href="#13" y="23.881"/><use xlink:href="#14" y="26.052"/><use xlink:href="#15" y="28.223"/><use xlink:href="#16" y="30.394"/><use xlink:href="#17" y="32.565"/><use xlink:href="#18" y="34.736"/><use xlink:href="#19" y="36.907"/><use xlink:href="#20" y="39.078"/></svg><svg x="2240"><use xlink:href="#a"/><use xlink:href="#b" x="-.004" y="43.395"/><use xlink:href="#1"/><use xlink:href="#3" y="2.171"/><use xlink:href="#4" y="4.342"/><use xlink:href="#5" y="6.513"/><use xlink:href="#6" y="8.684"/><use xlink:href="#7" y="10.855"/><use xlink:href="#8" y="13.026"/><use xlink:href="#9" y="15.197"/><use xlink:href="#10" y="17.368"/><use xlink:href="#11" y="19.539"/><use xlink:href="#12" y="21.71"/><use xlink:href="#13" y="23.881"/><use xlink:href="#14" y="26.052"/><use xlink:href="#15" y="28.223"/><use xlink:href="#16" y="30.394"/><use xlink:href="#17" y="32.565"/><use xlink:href="#18" y="34.736"/><use xlink:href="#19" y="36.907"/><use xlink:href="#20" y="39.078"/><use xlink:href="#21" y="41.249"/></svg><svg x="2320"><use xlink:href="#a"/><use xlink:href="#b" x="-.004" y="45.566"/><use xlink:href="#1"/><use xlink:href="#3" y="2.171"/><use xlink:href="#4" y="4.342"/><use xlink:href="#5" y="6.513"/><use xlink:href="#6" y="8.684"/><use xlink:href="#7" y="10.855"/><use xlink:href="#8" y="13.026"/><use xlink:href="#9" y="15.197"/><use xlink:href="#10" y="17.368"/><use xlink:href="#11" y="19.539"/><use xlink:href="#12" y="21.71"/><use xlink:href="#13" y="23.881"/><use xlink:href="#14" y="26.052"/><use xlink:href="#15" y="28.223"/><use xlink:href="#16" y="30.394"/><use xlink:href="#17" y="32.565"/><use xlink:href="#18" y="34.736"/><use xlink:href="#19" y="36.907"/><use xlink:href="#20" y="39.078"/><use xlink:href="#21" y="41.249"/><use xlink:href="#22" y="43.42"/></svg><svg x="2400"><use xlink:href="#a"/><use xlink:href="#b" x="-.004" y="47.737"/><use xlink:href="#1"/><use xlink:href="#3" y="2.171"/><use xlink:href="#4" y="4.342"/><use xlink:href="#5" y="6.513"/><use xlink:href="#6" y="8.684"/><use xlink:href="#7" y="10.855"/><use xlink:href="#8" y="13.026"/><use xlink:href="#9" y="15.197"/><use xlink:href="#10" y="17.368"/><use xlink:href="#11" y="19.539"/><use xlink:href="#12" y="21.71"/><use xlink:href="#13" y="23.881"/><use xlink:href="#14" y="26.052"/><use xlink:href="#15" y="28.223"/><use xlink:href="#16" y="30.394"/><use xlink:href="#17" y="32.565"/><use xlink:href="#18" y="34.736"/><use xlink:href="#19" y="36.907"/><use xlink:href="#20" y="39.078"/><use xlink:href="#21" y="41.249"/><use xlink:href="#22" y="43.42"/><use xlink:href="#23" y="45.591"/></svg><svg x="2480"><use xlink:href="#a"/><use xlink:href="#b" x="-.004" y="49.908"/><use xlink:href="#1"/><use xlink:href="#3" y="2.171"/><use xlink:href="#4" y="4.342"/><use xlink:href="#5" y="6.513"/><use xlink:href="#6" y="8.684"/><use xlink:href="#7" y="10.855"/><use xlink:href="#8" y="13.026"/><use xlink:href="#9" y="15.197"/><use xlink:href="#10" y="17.368"/><use xlink:href="#11" y="19.539"/><use xlink:href="#12" y="21.71"/><use xlink:href="#13" y="23.881"/><use xlink:href="#14" y="26.052"/><use xlink:href="#15" y="28.223"/><use xlink:href="#16" y="30.394"/><use xlink:href="#17" y="32.565"/><use xlink:href="#18" y="34.736"/><use xlink:href="#19" y="36.907"/><use xlink:href="#20" y="39.078"/><use xlink:href="#21" y="41.249"/><use xlink:href="#22" y="43.42"/><use xlink:href="#23" y="45.591"/><use xlink:href="#24" y="47.762"/></svg><svg x="2560"><use xlink:href="#a"/><use xlink:href="#b" x="-.004" y="49.908"/><use xlink:href="#3"/><use xlink:href="#4" y="2.171"/><use xlink:href="#5" y="4.342"/><use xlink:href="#6" y="6.513"/><use xlink:href="#7" y="8.684"/><use xlink:href="#8" y="10.855"/><use xlink:href="#9" y="13.026"/><use xlink:href="#10" y="15.197"/><use xlink:href="#11" y="17.368"/><use xlink:href="#12" y="19.539"/><use xlink:href="#13" y="21.71"/><use xlink:href="#14" y="23.881"/><use xlink:href="#15" y="26.052"/><use xlink:href="#16" y="28.223"/><use xlink:href="#17" y="30.394"/><use xlink:href="#18" y="32.565"/><use xlink:href="#19" y="34.736"/><use xlink:href="#20" y="36.907"/><use xlink:href="#21" y="39.078"/><use xlink:href="#22" y="41.249"/><use xlink:href="#23" y="43.42"/><use xlink:href="#24" y="45.591"/><use xlink:href="#25" y="47.762"/></svg><svg x="2640"><use xlink:href="#a"/><use xlink:href="#b" x="-.004" y="49.908"/><use xlink:href="#5"/><use xlink:href="#6" y="2.171"/><use xlink:href="#7" y="4.342"/><use xlink:href="#8" y="6.513"/><use xlink:href="#9" y="8.684"/><use xlink:href="#10" y="10.855"/><use xlink:href="#11" y="13.026"/><use xlink:href="#12" y="15.197"/><use xlink:href="#13" y="17.368"/><use xlink:href="#14" y="19.539"/><use xlink:href="#15" y="21.71"/><use xlink:href="#16" y="23.881"/><use xlink:href="#17" y="26.052"/><use xlink:href="#18" y="28.223"/><use xlink:href="#19" y="30.394"/><use xlink:href="#20" y="32.565"/><use xlink:href="#21" y="34.736"/><use xlink:href="#22" y="36.907"/><use xlink:href="#23" y="39.078"/><use xlink:href="#24" y="41.249"/><use xlink:href="#25" y="43.42"/><use xlink:href="#26" y="45.591"/><use xlink:href="#27" y="47.762"/></svg><svg x="2720"><use xlink:href="#a"/><use xlink:href="#b" x="-.004" y="49.908"/><use xlink:href="#6"/><use xlink:href="#7" y="2.171"/><use xlink:href="#8" y="4.342"/><use xlink:href="#9" y="6.513"/><use xlink:href="#10" y="8.684"/><use xlink:href="#11" y="10.855"/><use xlink:href="#12" y="13.026"/><use xlink:href="#13" y="15.197"/><use xlink:href="#14" y="17.368"/><use xlink:href="#15" y="19.539"/><use xlink:href="#16" y="21.71"/><use xlink:href="#17" y="23.881"/><use xlink:href="#18" y="26.052"/><use xlink:href="#19" y="28.223"/><use xlink:href="#20" y="30.394"/><use xlink:href="#21" y="32.565"/><use xlink:href="#22" y="34.736"/><use xlink:href="#23" y="36.907"/><use xlink:href="#24" y="39.078"/><use xlink:href="#25" y="41.249"/><use xlink:href="#26" y="43.42"/><use xlink:href="#27" y="45.591"/><use xlink:href="#28" y="47.762"/></svg><svg x="2800"><use xlink:href="#a"/><use xlink:href="#b" x="-.004" y="49.908"/><use xlink:href="#8"/><use xlink:href="#9" y="2.171"/><use xlink:href="#10" y="4.342"/><use xlink:href="#11" y="6.513"/><use xlink:href="#12" y="8.684"/><use xlink:href="#13" y="10.855"/><use xlink:href="#14" y="13.026"/><use xlink:href="#15" y="15.197"/><use xlink:href="#16" y="17.368"/><use xlink:href="#17" y="19.539"/><use xlink:href="#18" y="21.71"/><use xlink:href="#19" y="23.881"/><use xlink:href="#20" y="26.052"/><use xlink:href="#21" y="28.223"/><use xlink:href="#22" y="30.394"/><use xlink:href="#23" y="32.565"/><use xlink:href="#24" y="34.736"/><use xlink:href="#25" y="36.907"/><use xlink:href="#26" y="39.078"/><use xlink:href="#27" y="41.249"/><use xlink:href="#28" y="43.42"/><use xlink:href="#29" y="45.591"/><use xlink:href="#30" y="47.762"/></svg><svg x="2880"><use xlink:href="#a"/><use xlink:href="#b" x="-.004" y="49.908"/><use xlink:href="#9"/><use xlink:href="#10" y="2.171"/><use xlink:href="#11" y="4.342"/><use xlink:href="#12" y="6.513"/><use xlink:href="#13" y="8.684"/><use xlink:href="#14" y="10.855"/><use xlink:href="#15" y="13.026"/><use xlink:href="#16" y="15.197"/><use xlink:href="#17" y="17.368"/><use xlink:href="#18" y="19.539"/><use xlink:href="#19" y="21.71"/><use xlink:href="#20" y="23.881"/><use xlink:href="#21" y="26.052"/><use xlink:href="#22" y="28.223"/><use xlink:href="#23" y="30.394"/><use xlink:href="#24" y="32.565"/><use xlink:href="#25" y="34.736"/><use xlink:href="#26" y="36.907"/><use xlink:href="#27" y="39.078"/><use xlink:href="#28" y="41.249"/><use xlink:href="#29" y="43.42"/><use xlink:href="#30" y="45.591"/><use xlink:href="#31" y="47.762"/></svg><svg x="2960"><use xlink:href="#a"/><use xlink:href="#b" x="-.004" y="49.908"/><use xlink:href="#11"/><use xlink:href="#12" y="2.171"/><use xlink:href="#13" y="4.342"/><use xlink:href="#14" y="6.513"/><use xlink:href="#15" y="8.684"/><use xlink:href="#16" y="10.855"/><use xlink:href="#17" y="13.026"/><use xlink:href="#18" y="15.197"/><use xlink:href="#19" y="17.368"/><use xlink:href="#20" y="19.539"/><use xlink:href="#21" y="21.71"/><use xlink:href="#22" y="23.881"/><use xlink:href="#23" y="26.052"/><use xlink:href="#24" y="28.223"/><use xlink:href="#25" y="30.394"/><use xlink:href="#26" y="32.565"/><use xlink:href="#27" y="34.736"/><use xlink:href="#28" y="36.907"/><use xlink:href="#29" y="39.078"/><use xlink:href="#30" y="41.249"/><use xlink:href="#31" y="43.42"/><use xlink:href="#32" y="45.591"/><use xlink:href="#33" y="47.762"/></svg><svg x="3040"><use xlink:href="#a"/><use xlink:href="#b" x="-.004" y="49.908"/><use xlink:href="#12"/><use xlink:href="#13" y="2.171"/><use xlink:href="#14" y="4.342"/><use xlink:href="#15" y="6.513"/><use xlink:href="#16" y="8.684"/><use xlink:href="#17" y="10.855"/><use xlink:href="#18" y="13.026"/><use xlink:href="#19" y="15.197"/><use xlink:href="#20" y="17.368"/><use xlink:href="#21" y="19.539"/><use xlink:href="#22" y="21.71"/><use xlink:href="#23" y="23.881"/><use xlink:href="#24" y="26.052"/><use xlink:href="#25" y="28.223"/><use xlink:href="#26" y="30.394"/><use xlink:href="#27" y="32.565"/><use xlink:href="#28" y="34.736"/><use xlink:href="#29" y="36.907"/><use xlink:href="#30" y="39.078"/><use xlink:href="#31" y="41.249"/><use xlink:href="#32" y="43.42"/><use xlink:href="#33" y="45.591"/><use xlink:href="#34" y="47.762"/></svg><svg x="3120"><use xlink:href="#a"/><use xlink:href="#b" x="-.004" y="49.908"/><use xlink:href="#14"/><use xlink:href="#15" y="2.171"/><use xlink:href="#16" y="4.342"/><use xlink:href="#17" y="6.513"/><use xlink:href="#18" y="8.684"/><use xlink:href="#19" y="10.855"/><use xlink:href="#20" y="13.026"/><use xlink:href="#21" y="15.197"/><use xlink:href="#22" y="17.368"/><use xlink:href="#23" y="19.539"/><use xlink:href="#24" y="21.71"/><use xlink:href="#25" y="23.881"/><use xlink:href="#26" y="26.052"/><use xlink:href="#27" y="28.223"/><use xlink:href="#28" y="30.394"/><use xlink:href="#29" y="32.565"/><use xlink:href="#30" y="34.736"/><use xlink:href="#31" y="36.907"/><use xlink:href="#32" y="39.078"/><use xlink:href="#33" y="41.249"/><use xlink:href="#34" y="43.42"/><use xlink:href="#35" y="45.591"/><use xlink:href="#36" y="47.762"/></svg><svg x="3200"><use xlink:href="#a"/><use xlink:href="#b" x="-.004" y="49.908"/><use xlink:href="#16"/><use xlink:href="#17" y="2.171"/><use xlink:href="#18" y="4.342"/><use xlink:href="#19" y="6.513"/><use xlink:href="#20" y="8.684"/><use xlink:href="#21" y="10.855"/><use xlink:href="#22" y="13.026"/><use xlink:href="#23" y="15.197"/><use xlink:href="#24" y="17.368"/><use xlink:href="#25" y="19.539"/><use xlink:href="#26" y="21.71"/><use xlink:href="#27" y="23.881"/><use xlink:href="#28" y="26.052"/><use xlink:href="#29" y="28.223"/><use xlink:href="#30" y="30.394"/><use xlink:href="#31" y="32.565"/><use xlink:href="#32" y="34.736"/><use xlink:href="#33" y="36.907"/><use xlink:href="#34" y="39.078"/><use xlink:href="#35" y="41.249"/><use xlink:href="#36" y="43.42"/><use xlink:href="#37" y="45.591"/><use xlink:href="#38" y="47.762"/></svg><svg x="3280"><use xlink:href="#a"/><use xlink:href="#b" x="-.004" y="49.908"/><use xlink:href="#17"/><use xlink:href="#18" y="2.171"/><use xlink:href="#19" y="4.342"/><use xlink:href="#20" y="6.513"/><use xlink:href="#21" y="8.684"/><use xlink:href="#22" y="10.855"/><use xlink:href="#23" y="13.026"/><use xlink:href="#24" y="15.197"/><use xlink:href="#25" y="17.368"/><use xlink:href="#26" y="19.539"/><use xlink:href="#27" y="21.71"/><use xlink:href="#28" y="23.881"/><use xlink:href="#29" y="26.052"/><use xlink:href="#30" y="28.223"/><use xlink:href="#31" y="30.394"/><use xlink:href="#32" y="32.565"/><use xlink:href="#33" y="34.736"/><use xlink:href="#34" y="36.907"/><use xlink:href="#35" y="39.078"/><use xlink:href="#36" y="41.249"/><use xlink:href="#37" y="43.42"/><use xlink:href="#38" y="45.591"/><use xlink:href="#39" y="47.762"/></svg><svg x="3360"><use xlink:href="#a"/><use xlink:href="#b" x="-.004" y="49.908"/><use xlink:href="#19"/><use xlink:href="#20" y="2.171"/><use xlink:href="#21" y="4.342"/><use xlink:href="#22" y="6.513"/><use xlink:href="#23" y="8.684"/><use xlink:href="#24" y="10.855"/><use xlink:href="#25" y="13.026"/><use xlink:href="#26" y="15.197"/><use xlink:href="#27" y="17.368"/><use xlink:href="#28" y="19.539"/><use xlink:href="#29" y="21.71"/><use xlink:href="#30" y="23.881"/><use xlink:href="#31" y="26.052"/><use xlink:href="#32" y="28.223"/><use xlink:href="#33" y="30.394"/><use xlink:href="#34" y="32.565"/><use xlink:href="#35" y="34.736"/><use xlink:href="#36" y="36.907"/><use xlink:href="#37" y="39.078"/><use xlink:href="#38" y="41.249"/><use xlink:href="#39" y="43.42"/><use xlink:href="#40" y="45.591"/><use xlink:href="#41" y="47.762"/></svg><svg x="3440"><use xlink:href="#a"/><use xlink:href="#b" x="-.004" y="49.908"/><use xlink:href="#21"/><use xlink:href="#22" y="2.171"/><use xlink:href="#23" y="4.342"/><use xlink:href="#24" y="6.513"/><use xlink:href="#25" y="8.684"/><use xlink:href="#26" y="10.855"/><use xlink:href="#27" y="13.026"/><use xlink:href="#28" y="15.197"/><use xlink:href="#29" y="17.368"/><use xlink:href="#30" y="19.539"/><use xlink:href="#31" y="21.71"/><use xlink:href="#32" y="23.881"/><use xlink:href="#33" y="26.052"/><use xlink:href="#34" y="28.223"/><use xlink:href="#35" y="30.394"/><use xlink:href="#36" y="32.565"/><use xlink:href="#37" y="34.736"/><use xlink:href="#38" y="36.907"/><use xlink:href="#39" y="39.078"/><use xlink:href="#40" y="41.249"/><use xlink:href="#41" y="43.42"/><use xlink:href="#42" y="45.591"/><use xlink:href="#43" y="47.762"/></svg><svg x="3520"><use xlink:href="#a"/><use xlink:href="#b" x="-.004" y="49.908"/><use xlink:href="#22"/><use xlink:href="#23" y="2.171"/><use xlink:href="#24" y="4.342"/><use xlink:href="#25" y="6.513"/><use xlink:href="#26" y="8.684"/><use xlink:href="#27" y="10.855"/><use xlink:href="#28" y="13.026"/><use xlink:href="#29" y="15.197"/><use xlink:href="#30" y="17.368"/><use xlink:href="#31" y="19.539"/><use xlink:href="#32" y="21.71"/><use xlink:href="#33" y="23.881"/><use xlink:href="#34" y="26.052"/><use xlink:href="#35" y="28.223"/><use xlink:href="#36" y="30.394"/><use xlink:href="#37" y="32.565"/><use xlink:href="#38" y="34.736"/><use xlink:href="#39" y="36.907"/><use xlink:href="#40" y="39.078"/><use xlink:href="#41" y="41.249"/><use xlink:href="#42" y="43.42"/><use xlink:href="#43" y="45.591"/><use xlink:href="#44" y="47.762"/></svg><svg x="3600"><use xlink:href="#a"/><use xlink:href="#b" x="-.004" y="49.908"/><use xlink:href="#23"/><use xlink:href="#24" y="2.171"/><use xlink:href="#25" y="4.342"/><use xlink:href="#26" y="6.513"/><use xlink:href="#27" y="8.684"/><use xlink:href="#28" y="10.855"/><use xlink:href="#29" y="13.026"/><use xlink:href="#30" y="15.197"/><use xlink:href="#31" y="17.368"/><use xlink:href="#32" y="19.539"/><use xlink:href="#33" y="21.71"/><use xlink:href="#34" y="23.881"/><use xlink:href="#35" y="26.052"/><use xlink:href="#36" y="28.223"/><use xlink:href="#37" y="30.394"/><use xlink:href="#38" y="32.565"/><use xlink:href="#39" y="34.736"/><use xlink:href="#40" y="36.907"/><use xlink:href="#41" y="39.078"/><use xlink:href="#42" y="41.249"/><use xlink:href="#43" y="43.42"/><use xlink:href="#44" y="45.591"/><use xlink:href="#45" y="47.762"/></svg><svg x="3680"><use xlink:href="#a"/><use xlink:href="#b" x="-.004" y="49.908"/><use xlink:href="#24"/><use xlink:href="#25" y="2.171"/><use xlink:href="#26" y="4.342"/><use xlink:href="#27" y="6.513"/><use xlink:href="#28" y="8.684"/><use xlink:href="#29" y="10.855"/><use xlink:href="#30" y="13.026"/><use xlink:href="#31" y="15.197"/><use xlink:href="#32" y="17.368"/><use xlink:href="#33" y="19.539"/><use xlink:href="#34" y="21.71"/><use xlink:href="#35" y="23.881"/><use xlink:href="#36" y="26.052"/><use xlink:href="#37" y="28.223"/><use xlink:href="#38" y="30.394"/><use xlink:href="#39" y="32.565"/><use xlink:href="#40" y="34.736"/><use xlink:href="#41" y="36.907"/><use xlink:href="#42" y="39.078"/><use xlink:href="#43" y="41.249"/><use xlink:href="#44" y="43.42"/><use xlink:href="#45" y="45.591"/><use xlink:href="#46" y="47.762"/></svg><svg x="3760"><use xlink:href="#a"/><use xlink:href="#b" x="-.004" y="49.908"/><use xlink:href="#25"/><use xlink:href="#26" y="2.171"/><use xlink:href="#27" y="4.342"/><use xlink:href="#28" y="6.513"/><use xlink:href="#29" y="8.684"/><use xlink:href="#30" y="10.855"/><use xlink:href="#31" y="13.026"/><use xlink:href="#32" y="15.197"/><use xlink:href="#33" y="17.368"/><use xlink:href="#34" y="19.539"/><use xlink:href="#35" y="21.71"/><use xlink:href="#36" y="23.881"/><use xlink:href="#37" y="26.052"/><use xlink:href="#38" y="28.223"/><use xlink:href="#39" y="30.394"/><use xlink:href="#40" y="32.565"/><use xlink:href="#41" y="34.736"/><use xlink:href="#42" y="36.907"/><use xlink:href="#43" y="39.078"/><use xlink:href="#44" y="41.249"/><use xlink:href="#45" y="43.42"/><use xlink:href="#46" y="45.591"/><use xlink:href="#47" y="47.762"/></svg><svg x="3840"><use xlink:href="#a"/><use xlink:href="#b" x="-.004" y="49.908"/><use xlink:href="#26"/><use xlink:href="#27" y="2.171"/><use xlink:href="#28" y="4.342"/><use xlink:href="#29" y="6.513"/><use xlink:href="#30" y="8.684"/><use xlink:href="#31" y="10.855"/><use xlink:href="#32" y="13.026"/><use xlink:href="#33" y="15.197"/><use xlink:href="#34" y="17.368"/><use xlink:href="#35" y="19.539"/><use xlink:href="#36" y="21.71"/><use xlink:href="#37" y="23.881"/><use xlink:href="#38" y="26.052"/><use xlink:href="#39" y="28.223"/><use xlink:href="#40" y="30.394"/><use xlink:href="#41" y="32.565"/><use xlink:href="#42" y="34.736"/><use xlink:href="#43" y="36.907"/><use xlink:href="#44" y="39.078"/><use xlink:href="#45" y="41.249"/><use xlink:href="#46" y="43.42"/><use xlink:href="#47" y="45.591"/><use xlink:href="#48" y="47.762"/></svg><svg x="3920"><use xlink:href="#a"/><use xlink:href="#b" x="-.004" y="49.908"/><use xlink:href="#28"/><use xlink:href="#29" y="2.171"/><use xlink:href="#30" y="4.342"/><use xlink:href="#31" y="6.513"/><use xlink:href="#32" y="8.684"/><use xlink:href="#33" y="10.855"/><use xlink:href="#34" y="13.026"/><use xlink:href="#35" y="15.197"/><use xlink:href="#36" y="17.368"/><use xlink:href="#37" y="19.539"/><use xlink:href="#38" y="21.71"/><use xlink:href="#39" y="23.881"/><use xlink:href="#40" y="26.052"/><use xlink:href="#41" y="28.223"/><use xlink:href="#42" y="30.394"/><use xlink:href="#43" y="32.565"/><use xlink:href="#44" y="34.736"/><use xlink:href="#45" y="36.907"/><use xlink:href="#46" y="39.078"/><use xlink:href="#47" y="41.249"/><use xlink:href="#48" y="43.42"/><use xlink:href="#49" y="45.591"/><use xlink:href="#50" y="47.762"/></svg><svg x="4000"><use xlink:href="#a"/><use xlink:href="#b" x="-.004" y="49.908"/><use xlink:href="#29"/><use xlink:href="#30" y="2.171"/><use xlink:href="#31" y="4.342"/><use xlink:href="#32" y="6.513"/><use xlink:href="#33" y="8.684"/><use xlink:href="#34" y="10.855"/><use xlink:href="#35" y="13.026"/><use xlink:href="#36" y="15.197"/><use xlink:href="#37" y="17.368"/><use xlink:href="#38" y="19.539"/><use xlink:href="#39" y="21.71"/><use xlink:href="#40" y="23.881"/><use xlink:href="#41" y="26.052"/><use xlink:href="#42" y="28.223"/><use xlink:href="#43" y="30.394"/><use xlink:href="#44" y="32.565"/><use xlink:href="#45" y="34.736"/><use xlink:href="#46" y="36.907"/><use xlink:href="#47" y="39.078"/><use xlink:href="#48" y="41.249"/><use xlink:href="#49" y="43.42"/><use xlink:href="#50" y="45.591"/><use xlink:href="#51" y="47.762"/></svg><svg x="4080"><use xlink:href="#a"/><use xlink:href="#b" x="-.004" y="49.908"/><use xlink:href="#30"/><use xlink:href="#31" y="2.171"/><use xlink:href="#32" y="4.342"/><use xlink:href="#33" y="6.513"/><use xlink:href="#34" y="8.684"/><use xlink:href="#35" y="10.855"/><use xlink:href="#36" y="13.026"/><use xlink:href="#37" y="15.197"/><use xlink:href="#38" y="17.368"/><use xlink:href="#39" y="19.539"/><use xlink:href="#40" y="21.71"/><use xlink:href="#41" y="23.881"/><use xlink:href="#42" y="26.052"/><use xlink:href="#43" y="28.223"/><use xlink:href="#44" y="30.394"/><use xlink:href="#45" y="32.565"/><use xlink:href="#46" y="34.736"/><use xlink:href="#47" y="36.907"/><use xlink:href="#48" y="39.078"/><use xlink:href="#49" y="41.249"/><use xlink:href="#50" y="43.42"/><use xlink:href="#51" y="45.591"/><use xlink:href="#52" y="47.762"/></svg><svg x="4160"><use xlink:href="#a"/><use xlink:href="#b" x="-.004" y="49.908"/><use xlink:href="#31"/><use xlink:href="#32" y="2.171"/><use xlink:href="#33" y="4.342"/><use xlink:href="#34" y="6.513"/><use xlink:href="#35" y="8.684"/><use xlink:href="#36" y="10.855"/><use xlink:href="#37" y="13.026"/><use xlink:href="#38" y="15.197"/><use xlink:href="#39" y="17.368"/><use xlink:href="#40" y="19.539"/><use xlink:href="#41" y="21.71"/><use xlink:href="#42" y="23.881"/><use xlink:href="#43" y="26.052"/><use xlink:href="#44" y="28.223"/><use xlink:href="#45" y="30.394"/><use xlink:href="#46" y="32.565"/><use xlink:href="#47" y="34.736"/><use xlink:href="#48" y="36.907"/><use xlink:href="#49" y="39.078"/><use xlink:href="#50" y="41.249"/><use xlink:href="#51" y="43.42"/><use xlink:href="#52" y="45.591"/></svg></svg></g></g></svg></svg>